# Blender 3.6.5
# www.blender.org
mtllib Rock.mtl
o Cube
v -0.894720 -1.380589 1.020074
v -1.023086 -1.252828 1.021444
v -0.989278 -1.355324 0.900883
v -0.893638 0.574798 0.965122
v -0.990082 0.622886 0.871638
v -1.001585 0.510927 1.001472
v -0.609714 -1.060560 -0.407844
v -0.600002 -0.906999 -0.548461
v -0.452768 -1.058717 -0.568181
v -0.753512 0.332467 -0.724631
v -0.839831 0.270428 -0.722029
v -0.875429 0.414527 -0.612253
v 0.978467 -1.349949 0.849201
v 0.909622 -1.241561 0.946510
v 0.845774 -1.350852 0.982008
v 0.106485 -0.046846 0.637167
v 0.278949 -0.220027 0.634945
v 0.212076 -0.124172 0.472776
v 0.896608 -1.343372 -0.993403
v 0.946740 -1.267647 -0.992675
v 1.015419 -1.367697 -0.901744
v 0.206537 -0.204790 -0.458217
v 0.277189 -0.317372 -0.626763
v 0.093767 -0.151968 -0.603714
vn 0.3247 0.0276 0.9454
vn 0.8534 0.5190 -0.0493
vn 0.5064 0.8584 -0.0814
vn -0.9819 -0.1821 -0.0523
vn 0.3948 0.5112 -0.7635
vn -0.6513 -0.6584 0.3771
vn -0.2319 0.7467 0.6234
vn -0.6102 -0.5137 -0.6032
vn -0.3818 0.4986 -0.7783
vn 0.6963 -0.1812 0.6945
vn 0.7040 0.6995 0.1232
vn 0.5289 -0.3427 -0.7765
vn 0.6366 0.7374 -0.2257
vn 0.0020 -1.0000 0.0091
vn 0.0157 0.3006 0.9536
vn 0.5440 0.5334 0.6478
vn 0.3155 0.0069 0.9489
vn 0.0217 0.0111 0.9997
vn 0.0191 0.2626 0.9647
vn 0.8195 0.5730 0.0115
vn 0.8059 0.5894 -0.0558
vn 0.8565 0.5137 -0.0496
vn 0.8491 0.5281 0.0126
vn 0.8232 0.5677 0.0112
vn 0.5032 0.8607 -0.0775
vn 0.5035 0.8601 -0.0819
vn 0.5068 0.8582 -0.0814
vn 0.5079 0.8579 -0.0773
vn 0.5036 0.8604 -0.0776
vn -0.9609 0.0086 -0.2768
vn -0.9968 0.0113 -0.0786
vn -0.9774 -0.2060 -0.0466
vn -0.9184 -0.2341 -0.3191
vn -0.9604 -0.0053 -0.2785
vn -0.3331 -0.2036 -0.9207
vn 0.0654 -0.1325 -0.9890
vn 0.4264 0.5707 -0.7018
vn -0.2605 0.1816 -0.9482
vn -0.3266 -0.1725 -0.9293
vn -0.2838 -0.9145 -0.2883
vn -0.2047 -0.9788 0.0056
vn 0.0173 -0.9998 0.0105
vn 0.0119 -0.9762 -0.2164
vn -0.2584 -0.9243 -0.2810
vt 0.553411 0.657744
vt 0.014105 0.929216
vt 0.066117 0.008601
vt 0.720878 0.580872
vt 0.188828 0.573455
vt 0.084548 0.023514
vt 0.075506 0.795848
vt 0.066644 0.028129
vt 0.604803 0.267757
vt 0.073628 0.983707
vt 0.849277 0.812163
vt 0.696361 0.164362
vt 0.134844 0.842358
vt 0.636494 0.526077
vt 0.937970 0.026715
vt 0.066117 0.001383
vt 0.003641 0.070784
vt 0.059394 0.020898
vt 0.066644 0.960302
vt 0.019704 0.073628
vt 0.010437 0.929216
vt 0.204832 0.696361
vt 0.764800 0.239101
vt 0.281218 0.165259
vt 0.134844 0.850543
vt 0.092832 0.812163
vt 0.795848 0.882298
vt 0.977811 0.084548
vt 0.037187 0.076267
vt 0.913228 0.023075
vt 0.553411 0.187747
vt 0.637350 0.573455
vt 0.267757 0.620109
vt 0.937970 0.981357
vt 0.962369 0.063571
vt 0.936745 0.014876
vt 0.602107 0.720878
vt 0.802910 0.526077
vt 0.547221 0.606580
vt 0.995796 0.936745
vt 0.913228 0.019910
vt 0.020095 0.059394
vt 0.944303 0.076267
vt 0.981003 0.063571
vt 0.547221 0.791692
vt 0.000716 0.070784
vt 0.209559 0.239101
vt 0.281218 0.774398
s 0
f 16/1/1 6/2/1 1/3/1
f 22/4/2 17/5/2 13/6/2
f 12/7/3 4/8/3 18/9/3
f 5/10/4 11/11/4 7/12/4
f 10/13/5 23/14/5 19/15/5
f 1/16/6 2/17/6 3/18/6
f 4/19/7 5/20/7 6/21/7
f 7/22/8 8/23/8 9/24/8
f 10/25/9 11/26/9 12/27/9
f 13/28/10 14/29/10 15/30/10
f 16/31/11 17/32/11 18/33/11
f 19/34/12 20/35/12 21/36/12
f 22/37/13 23/38/13 24/39/13
f 21/40/14 15/41/14 3/42/14
f 1/3/15 15/30/15 14/43/15
f 14/43/16 17/32/16 16/1/16
f 16/1/17 4/19/17 6/2/17
f 6/2/18 2/17/18 1/3/18
f 1/3/19 14/43/19 16/1/19
f 13/6/20 21/36/20 20/44/20
f 20/44/21 23/38/21 22/4/21
f 22/4/22 18/33/22 17/5/22
f 17/5/23 14/29/23 13/6/23
f 13/6/24 20/44/24 22/4/24
f 18/9/25 22/37/25 24/45/25
f 24/45/26 10/25/26 12/7/26
f 12/7/27 5/20/27 4/8/27
f 4/8/28 16/31/28 18/9/28
f 18/9/29 24/45/29 12/7/29
f 7/12/30 3/18/30 2/46/30
f 2/46/31 6/21/31 5/10/31
f 5/10/32 12/27/32 11/11/32
f 11/11/33 8/23/33 7/12/33
f 7/12/34 2/46/34 5/10/34
f 19/15/35 9/24/35 8/47/35
f 8/47/36 11/26/36 10/13/36
f 10/13/37 24/39/37 23/14/37
f 23/14/38 20/35/38 19/15/38
f 19/15/39 8/47/39 10/13/39
f 3/42/40 7/22/40 9/48/40
f 9/48/41 19/34/41 21/40/41
f 21/40/42 13/28/42 15/41/42
f 15/41/43 1/16/43 3/42/43
f 3/42/44 9/48/44 21/40/44
